<svg xmlns="http://www.w3.org/2000/svg" viewBox="0 0 369.83 243.96"><path d="M259.89 7.41c13.43-6.62 20.11-5.73 20.24.95.19 8.7-1.1 20.23-2 28.6-5 45.43-13.32 82.55-13.95 129.19 21.94-56.8 40.34-96.28 64-144.91 7.53-15.47 12.32-12.59 18.5-15.34 24.08-10.71 25-4.13 21.84 9-11.68 48.5-41.52 201.33-46.11 224.86-1.33 6.8-8.71 3.92-10.64 1.26-8.57-11.85-18.23-12-17.14-19.92 5.37-39.23 24.71-137.67 29.75-160.86-25.72 52.69-52.38 118.56-66.06 155.91-2.9 7.93-8.18 7.35-11.48 1.55-4.63-8.15-13.61-12.32-15.09-21.95-4.7-30.63 5.37-89 6.77-125.93-14 40.34-37.49 118.67-47.78 154.05-4.25 14.65-18.38 12.26-14.62-2 15.64-59.4 49.32-164.44 63.88-202.21 3.43-8.88 12.41-8.57 19.86-12.25ZM174.6.11c4.26 1 3.91 6.05 1.31 12.92-7.68 20.24-18.34 46.84-30.52 78.21 7.66-.88 11.81-1.17 11.81-1.17 11-1.36 13 4.14 10 10-2.47 4.66-5.44 1.55-15.72 16.89-5.8 8.64-15.26 10.92-20.52 12.07-12.66 33.53-26.23 70.92-39.41 110.77-1.92 5.81-7.53 4.54-9.21 2.18-6.25-8.66-10.81-8.98-15.61-15.98a6.72 6.72 0 0 1-1-5.45c3.53-14.42 12.9-44.06 27.16-83.09-18 3.89-37.39 8.08-45.41 9.94-9.63 25.45-19 51-27.91 76.18C14 239.26-.34 236.24 4.7 221.46c8-23.55 16.89-48 25.78-71.72-9.95-1.07-13.32-8.09-18.88-14-2.14-2.27-6.82-1.95-9.12-5.13-4.12-5.71-3.71-8.25 5.81-11q18.63-5.39 37.47-10c16.09-41.48 30.63-77.1 38.38-96.1 6-14.65 21.37-13.28 15.52 1.16C87.77 44 75.58 74.54 63.55 105.47q22.26-5 44.75-8.87 16.49-42.31 34.62-84c.85-1.93 3.31-4.67 5.88-5.11C156.89 6.13 170.05-1 174.6.11Zm-27.55 190.08a31.51 31.51 0 0 0 3.76-2.75q-1.42-4.23-2.82-8.47-1.4 1.8-2.75 3.64c-5.38 7.4-2.2 10 1.81 7.58Zm7.16-35.06c6.67-7.53-6.51-10.68-3.48.83.17.65.39 1.42.62 2.26.98-1.01 1.93-2.04 2.86-3.09Zm6.94 22.69c6.61-5.72 12.91 0 6.38 9.63-1.4 2.08-3 4.32-4.72 6.52q1 3 2.14 5.88c3.38 8.65-5.49 10.82-8.34 3.65-.25-.62-.51-1.29-.78-2-5.39 4.77-11.62 7.78-18.28 5.71-11-3.41-13.74-18.83-3.51-30.71 4.1-4.77 7.19-8.08 9.77-10.72q-.94-3.07-1.82-6.17c-1.33-4.81-2.53-10.42 2.29-16.13 9-10.71 30-1.2 19.38 15.29a129.3 129.3 0 0 1-8.66 11.54q1.61 5.08 3.26 10.18c.94-.92 1.9-1.8 2.88-2.67Z" style="fill:#e50010;fill-rule:evenodd"/></svg>